<?xml version="1.0" standalone="no"?>
<svg xmlns:xlink="http://www.w3.org/1999/xlink" version="1.1" xmlns="http://www.w3.org/2000/svg" id="QRCodeGenerate" class="img-fluid mw-75" data-copyright="my-qrcode.net" data-modulecount="45" data-defaultsize="470" data-defaultclass="img-fluid mw-75" data-text="file:///C:/Users/%D0%AF%D0%A0%D0%A3%D0%A1%D0%AC/Desktop/FrontEnd/wish-dashboard" data-color="rgb(255, 5, 5)" data-backcolor="none" data-typeicon="none" data-framesize="none" data-framewidth="0" data-titlelocation="none" data-titlefont="sans-serif" data-titletext="" data-typenumber="0" data-errorcorrectionlevel="Q" data-mode="Byte" data-mb="UTF-8" width="470px" height="470px" x="0px" y="0px" viewBox="0 0 470 470" preserveAspectRatio="xMinYMin meet"><rect width="100%" height="100%" fill="none" x="0" y="0"/><path d="M10,10l10,0 0,10 -10,0 0,-10z M20,10l10,0 0,10 -10,0 0,-10z M30,10l10,0 0,10 -10,0 0,-10z M40,10l10,0 0,10 -10,0 0,-10z M50,10l10,0 0,10 -10,0 0,-10z M60,10l10,0 0,10 -10,0 0,-10z M70,10l10,0 0,10 -10,0 0,-10z M110,10l10,0 0,10 -10,0 0,-10z M140,10l10,0 0,10 -10,0 0,-10z M170,10l10,0 0,10 -10,0 0,-10z M180,10l10,0 0,10 -10,0 0,-10z M210,10l10,0 0,10 -10,0 0,-10z M240,10l10,0 0,10 -10,0 0,-10z M270,10l10,0 0,10 -10,0 0,-10z M280,10l10,0 0,10 -10,0 0,-10z M310,10l10,0 0,10 -10,0 0,-10z M340,10l10,0 0,10 -10,0 0,-10z M370,10l10,0 0,10 -10,0 0,-10z M390,10l10,0 0,10 -10,0 0,-10z M400,10l10,0 0,10 -10,0 0,-10z M410,10l10,0 0,10 -10,0 0,-10z M420,10l10,0 0,10 -10,0 0,-10z M430,10l10,0 0,10 -10,0 0,-10z M440,10l10,0 0,10 -10,0 0,-10z M450,10l10,0 0,10 -10,0 0,-10z M10,20l10,0 0,10 -10,0 0,-10z M70,20l10,0 0,10 -10,0 0,-10z M110,20l10,0 0,10 -10,0 0,-10z M120,20l10,0 0,10 -10,0 0,-10z M140,20l10,0 0,10 -10,0 0,-10z M160,20l10,0 0,10 -10,0 0,-10z M170,20l10,0 0,10 -10,0 0,-10z M180,20l10,0 0,10 -10,0 0,-10z M190,20l10,0 0,10 -10,0 0,-10z M220,20l10,0 0,10 -10,0 0,-10z M250,20l10,0 0,10 -10,0 0,-10z M260,20l10,0 0,10 -10,0 0,-10z M280,20l10,0 0,10 -10,0 0,-10z M290,20l10,0 0,10 -10,0 0,-10z M300,20l10,0 0,10 -10,0 0,-10z M320,20l10,0 0,10 -10,0 0,-10z M330,20l10,0 0,10 -10,0 0,-10z M340,20l10,0 0,10 -10,0 0,-10z M360,20l10,0 0,10 -10,0 0,-10z M390,20l10,0 0,10 -10,0 0,-10z M450,20l10,0 0,10 -10,0 0,-10z M10,30l10,0 0,10 -10,0 0,-10z M30,30l10,0 0,10 -10,0 0,-10z M40,30l10,0 0,10 -10,0 0,-10z M50,30l10,0 0,10 -10,0 0,-10z M70,30l10,0 0,10 -10,0 0,-10z M90,30l10,0 0,10 -10,0 0,-10z M100,30l10,0 0,10 -10,0 0,-10z M110,30l10,0 0,10 -10,0 0,-10z M170,30l10,0 0,10 -10,0 0,-10z M180,30l10,0 0,10 -10,0 0,-10z M190,30l10,0 0,10 -10,0 0,-10z M210,30l10,0 0,10 -10,0 0,-10z M220,30l10,0 0,10 -10,0 0,-10z M230,30l10,0 0,10 -10,0 0,-10z M240,30l10,0 0,10 -10,0 0,-10z M280,30l10,0 0,10 -10,0 0,-10z M320,30l10,0 0,10 -10,0 0,-10z M340,30l10,0 0,10 -10,0 0,-10z M360,30l10,0 0,10 -10,0 0,-10z M390,30l10,0 0,10 -10,0 0,-10z M410,30l10,0 0,10 -10,0 0,-10z M420,30l10,0 0,10 -10,0 0,-10z M430,30l10,0 0,10 -10,0 0,-10z M450,30l10,0 0,10 -10,0 0,-10z M10,40l10,0 0,10 -10,0 0,-10z M30,40l10,0 0,10 -10,0 0,-10z M40,40l10,0 0,10 -10,0 0,-10z M50,40l10,0 0,10 -10,0 0,-10z M70,40l10,0 0,10 -10,0 0,-10z M120,40l10,0 0,10 -10,0 0,-10z M140,40l10,0 0,10 -10,0 0,-10z M170,40l10,0 0,10 -10,0 0,-10z M190,40l10,0 0,10 -10,0 0,-10z M220,40l10,0 0,10 -10,0 0,-10z M260,40l10,0 0,10 -10,0 0,-10z M280,40l10,0 0,10 -10,0 0,-10z M290,40l10,0 0,10 -10,0 0,-10z M300,40l10,0 0,10 -10,0 0,-10z M310,40l10,0 0,10 -10,0 0,-10z M360,40l10,0 0,10 -10,0 0,-10z M370,40l10,0 0,10 -10,0 0,-10z M390,40l10,0 0,10 -10,0 0,-10z M410,40l10,0 0,10 -10,0 0,-10z M420,40l10,0 0,10 -10,0 0,-10z M430,40l10,0 0,10 -10,0 0,-10z M450,40l10,0 0,10 -10,0 0,-10z M10,50l10,0 0,10 -10,0 0,-10z M30,50l10,0 0,10 -10,0 0,-10z M40,50l10,0 0,10 -10,0 0,-10z M50,50l10,0 0,10 -10,0 0,-10z M70,50l10,0 0,10 -10,0 0,-10z M90,50l10,0 0,10 -10,0 0,-10z M100,50l10,0 0,10 -10,0 0,-10z M130,50l10,0 0,10 -10,0 0,-10z M150,50l10,0 0,10 -10,0 0,-10z M170,50l10,0 0,10 -10,0 0,-10z M180,50l10,0 0,10 -10,0 0,-10z M200,50l10,0 0,10 -10,0 0,-10z M210,50l10,0 0,10 -10,0 0,-10z M220,50l10,0 0,10 -10,0 0,-10z M230,50l10,0 0,10 -10,0 0,-10z M240,50l10,0 0,10 -10,0 0,-10z M250,50l10,0 0,10 -10,0 0,-10z M260,50l10,0 0,10 -10,0 0,-10z M270,50l10,0 0,10 -10,0 0,-10z M310,50l10,0 0,10 -10,0 0,-10z M330,50l10,0 0,10 -10,0 0,-10z M350,50l10,0 0,10 -10,0 0,-10z M360,50l10,0 0,10 -10,0 0,-10z M370,50l10,0 0,10 -10,0 0,-10z M390,50l10,0 0,10 -10,0 0,-10z M410,50l10,0 0,10 -10,0 0,-10z M420,50l10,0 0,10 -10,0 0,-10z M430,50l10,0 0,10 -10,0 0,-10z M450,50l10,0 0,10 -10,0 0,-10z M10,60l10,0 0,10 -10,0 0,-10z M70,60l10,0 0,10 -10,0 0,-10z M90,60l10,0 0,10 -10,0 0,-10z M110,60l10,0 0,10 -10,0 0,-10z M170,60l10,0 0,10 -10,0 0,-10z M210,60l10,0 0,10 -10,0 0,-10z M250,60l10,0 0,10 -10,0 0,-10z M270,60l10,0 0,10 -10,0 0,-10z M320,60l10,0 0,10 -10,0 0,-10z M330,60l10,0 0,10 -10,0 0,-10z M390,60l10,0 0,10 -10,0 0,-10z M450,60l10,0 0,10 -10,0 0,-10z M10,70l10,0 0,10 -10,0 0,-10z M20,70l10,0 0,10 -10,0 0,-10z M30,70l10,0 0,10 -10,0 0,-10z M40,70l10,0 0,10 -10,0 0,-10z M50,70l10,0 0,10 -10,0 0,-10z M60,70l10,0 0,10 -10,0 0,-10z M70,70l10,0 0,10 -10,0 0,-10z M90,70l10,0 0,10 -10,0 0,-10z M110,70l10,0 0,10 -10,0 0,-10z M130,70l10,0 0,10 -10,0 0,-10z M150,70l10,0 0,10 -10,0 0,-10z M170,70l10,0 0,10 -10,0 0,-10z M190,70l10,0 0,10 -10,0 0,-10z M210,70l10,0 0,10 -10,0 0,-10z M230,70l10,0 0,10 -10,0 0,-10z M250,70l10,0 0,10 -10,0 0,-10z M270,70l10,0 0,10 -10,0 0,-10z M290,70l10,0 0,10 -10,0 0,-10z M310,70l10,0 0,10 -10,0 0,-10z M330,70l10,0 0,10 -10,0 0,-10z M350,70l10,0 0,10 -10,0 0,-10z M370,70l10,0 0,10 -10,0 0,-10z M390,70l10,0 0,10 -10,0 0,-10z M400,70l10,0 0,10 -10,0 0,-10z M410,70l10,0 0,10 -10,0 0,-10z M420,70l10,0 0,10 -10,0 0,-10z M430,70l10,0 0,10 -10,0 0,-10z M440,70l10,0 0,10 -10,0 0,-10z M450,70l10,0 0,10 -10,0 0,-10z M100,80l10,0 0,10 -10,0 0,-10z M130,80l10,0 0,10 -10,0 0,-10z M150,80l10,0 0,10 -10,0 0,-10z M170,80l10,0 0,10 -10,0 0,-10z M210,80l10,0 0,10 -10,0 0,-10z M250,80l10,0 0,10 -10,0 0,-10z M330,80l10,0 0,10 -10,0 0,-10z M370,80l10,0 0,10 -10,0 0,-10z M20,90l10,0 0,10 -10,0 0,-10z M50,90l10,0 0,10 -10,0 0,-10z M70,90l10,0 0,10 -10,0 0,-10z M90,90l10,0 0,10 -10,0 0,-10z M100,90l10,0 0,10 -10,0 0,-10z M120,90l10,0 0,10 -10,0 0,-10z M130,90l10,0 0,10 -10,0 0,-10z M160,90l10,0 0,10 -10,0 0,-10z M170,90l10,0 0,10 -10,0 0,-10z M180,90l10,0 0,10 -10,0 0,-10z M190,90l10,0 0,10 -10,0 0,-10z M200,90l10,0 0,10 -10,0 0,-10z M210,90l10,0 0,10 -10,0 0,-10z M220,90l10,0 0,10 -10,0 0,-10z M230,90l10,0 0,10 -10,0 0,-10z M240,90l10,0 0,10 -10,0 0,-10z M250,90l10,0 0,10 -10,0 0,-10z M270,90l10,0 0,10 -10,0 0,-10z M310,90l10,0 0,10 -10,0 0,-10z M330,90l10,0 0,10 -10,0 0,-10z M350,90l10,0 0,10 -10,0 0,-10z M370,90l10,0 0,10 -10,0 0,-10z M380,90l10,0 0,10 -10,0 0,-10z M400,90l10,0 0,10 -10,0 0,-10z M410,90l10,0 0,10 -10,0 0,-10z M430,90l10,0 0,10 -10,0 0,-10z M10,100l10,0 0,10 -10,0 0,-10z M20,100l10,0 0,10 -10,0 0,-10z M30,100l10,0 0,10 -10,0 0,-10z M40,100l10,0 0,10 -10,0 0,-10z M80,100l10,0 0,10 -10,0 0,-10z M100,100l10,0 0,10 -10,0 0,-10z M110,100l10,0 0,10 -10,0 0,-10z M120,100l10,0 0,10 -10,0 0,-10z M130,100l10,0 0,10 -10,0 0,-10z M150,100l10,0 0,10 -10,0 0,-10z M170,100l10,0 0,10 -10,0 0,-10z M200,100l10,0 0,10 -10,0 0,-10z M210,100l10,0 0,10 -10,0 0,-10z M230,100l10,0 0,10 -10,0 0,-10z M240,100l10,0 0,10 -10,0 0,-10z M250,100l10,0 0,10 -10,0 0,-10z M260,100l10,0 0,10 -10,0 0,-10z M270,100l10,0 0,10 -10,0 0,-10z M280,100l10,0 0,10 -10,0 0,-10z M310,100l10,0 0,10 -10,0 0,-10z M340,100l10,0 0,10 -10,0 0,-10z M360,100l10,0 0,10 -10,0 0,-10z M370,100l10,0 0,10 -10,0 0,-10z M390,100l10,0 0,10 -10,0 0,-10z M420,100l10,0 0,10 -10,0 0,-10z M430,100l10,0 0,10 -10,0 0,-10z M30,110l10,0 0,10 -10,0 0,-10z M70,110l10,0 0,10 -10,0 0,-10z M90,110l10,0 0,10 -10,0 0,-10z M140,110l10,0 0,10 -10,0 0,-10z M150,110l10,0 0,10 -10,0 0,-10z M160,110l10,0 0,10 -10,0 0,-10z M170,110l10,0 0,10 -10,0 0,-10z M200,110l10,0 0,10 -10,0 0,-10z M210,110l10,0 0,10 -10,0 0,-10z M230,110l10,0 0,10 -10,0 0,-10z M270,110l10,0 0,10 -10,0 0,-10z M280,110l10,0 0,10 -10,0 0,-10z M290,110l10,0 0,10 -10,0 0,-10z M310,110l10,0 0,10 -10,0 0,-10z M320,110l10,0 0,10 -10,0 0,-10z M340,110l10,0 0,10 -10,0 0,-10z M390,110l10,0 0,10 -10,0 0,-10z M420,110l10,0 0,10 -10,0 0,-10z M20,120l10,0 0,10 -10,0 0,-10z M40,120l10,0 0,10 -10,0 0,-10z M50,120l10,0 0,10 -10,0 0,-10z M60,120l10,0 0,10 -10,0 0,-10z M90,120l10,0 0,10 -10,0 0,-10z M110,120l10,0 0,10 -10,0 0,-10z M170,120l10,0 0,10 -10,0 0,-10z M200,120l10,0 0,10 -10,0 0,-10z M230,120l10,0 0,10 -10,0 0,-10z M240,120l10,0 0,10 -10,0 0,-10z M260,120l10,0 0,10 -10,0 0,-10z M270,120l10,0 0,10 -10,0 0,-10z M280,120l10,0 0,10 -10,0 0,-10z M300,120l10,0 0,10 -10,0 0,-10z M310,120l10,0 0,10 -10,0 0,-10z M330,120l10,0 0,10 -10,0 0,-10z M340,120l10,0 0,10 -10,0 0,-10z M350,120l10,0 0,10 -10,0 0,-10z M380,120l10,0 0,10 -10,0 0,-10z M390,120l10,0 0,10 -10,0 0,-10z M400,120l10,0 0,10 -10,0 0,-10z M420,120l10,0 0,10 -10,0 0,-10z M440,120l10,0 0,10 -10,0 0,-10z M10,130l10,0 0,10 -10,0 0,-10z M40,130l10,0 0,10 -10,0 0,-10z M70,130l10,0 0,10 -10,0 0,-10z M80,130l10,0 0,10 -10,0 0,-10z M90,130l10,0 0,10 -10,0 0,-10z M130,130l10,0 0,10 -10,0 0,-10z M170,130l10,0 0,10 -10,0 0,-10z M190,130l10,0 0,10 -10,0 0,-10z M200,130l10,0 0,10 -10,0 0,-10z M230,130l10,0 0,10 -10,0 0,-10z M250,130l10,0 0,10 -10,0 0,-10z M300,130l10,0 0,10 -10,0 0,-10z M330,130l10,0 0,10 -10,0 0,-10z M350,130l10,0 0,10 -10,0 0,-10z M360,130l10,0 0,10 -10,0 0,-10z M400,130l10,0 0,10 -10,0 0,-10z M420,130l10,0 0,10 -10,0 0,-10z M440,130l10,0 0,10 -10,0 0,-10z M450,130l10,0 0,10 -10,0 0,-10z M30,140l10,0 0,10 -10,0 0,-10z M40,140l10,0 0,10 -10,0 0,-10z M60,140l10,0 0,10 -10,0 0,-10z M80,140l10,0 0,10 -10,0 0,-10z M100,140l10,0 0,10 -10,0 0,-10z M140,140l10,0 0,10 -10,0 0,-10z M160,140l10,0 0,10 -10,0 0,-10z M190,140l10,0 0,10 -10,0 0,-10z M220,140l10,0 0,10 -10,0 0,-10z M230,140l10,0 0,10 -10,0 0,-10z M250,140l10,0 0,10 -10,0 0,-10z M270,140l10,0 0,10 -10,0 0,-10z M300,140l10,0 0,10 -10,0 0,-10z M310,140l10,0 0,10 -10,0 0,-10z M340,140l10,0 0,10 -10,0 0,-10z M370,140l10,0 0,10 -10,0 0,-10z M380,140l10,0 0,10 -10,0 0,-10z M390,140l10,0 0,10 -10,0 0,-10z M410,140l10,0 0,10 -10,0 0,-10z M430,140l10,0 0,10 -10,0 0,-10z M10,150l10,0 0,10 -10,0 0,-10z M50,150l10,0 0,10 -10,0 0,-10z M70,150l10,0 0,10 -10,0 0,-10z M90,150l10,0 0,10 -10,0 0,-10z M100,150l10,0 0,10 -10,0 0,-10z M160,150l10,0 0,10 -10,0 0,-10z M180,150l10,0 0,10 -10,0 0,-10z M200,150l10,0 0,10 -10,0 0,-10z M210,150l10,0 0,10 -10,0 0,-10z M230,150l10,0 0,10 -10,0 0,-10z M280,150l10,0 0,10 -10,0 0,-10z M290,150l10,0 0,10 -10,0 0,-10z M310,150l10,0 0,10 -10,0 0,-10z M340,150l10,0 0,10 -10,0 0,-10z M360,150l10,0 0,10 -10,0 0,-10z M390,150l10,0 0,10 -10,0 0,-10z M400,150l10,0 0,10 -10,0 0,-10z M410,150l10,0 0,10 -10,0 0,-10z M420,150l10,0 0,10 -10,0 0,-10z M430,150l10,0 0,10 -10,0 0,-10z M440,150l10,0 0,10 -10,0 0,-10z M10,160l10,0 0,10 -10,0 0,-10z M40,160l10,0 0,10 -10,0 0,-10z M50,160l10,0 0,10 -10,0 0,-10z M90,160l10,0 0,10 -10,0 0,-10z M100,160l10,0 0,10 -10,0 0,-10z M120,160l10,0 0,10 -10,0 0,-10z M150,160l10,0 0,10 -10,0 0,-10z M170,160l10,0 0,10 -10,0 0,-10z M180,160l10,0 0,10 -10,0 0,-10z M200,160l10,0 0,10 -10,0 0,-10z M220,160l10,0 0,10 -10,0 0,-10z M250,160l10,0 0,10 -10,0 0,-10z M260,160l10,0 0,10 -10,0 0,-10z M300,160l10,0 0,10 -10,0 0,-10z M310,160l10,0 0,10 -10,0 0,-10z M380,160l10,0 0,10 -10,0 0,-10z M440,160l10,0 0,10 -10,0 0,-10z M30,170l10,0 0,10 -10,0 0,-10z M40,170l10,0 0,10 -10,0 0,-10z M50,170l10,0 0,10 -10,0 0,-10z M60,170l10,0 0,10 -10,0 0,-10z M70,170l10,0 0,10 -10,0 0,-10z M90,170l10,0 0,10 -10,0 0,-10z M140,170l10,0 0,10 -10,0 0,-10z M180,170l10,0 0,10 -10,0 0,-10z M190,170l10,0 0,10 -10,0 0,-10z M250,170l10,0 0,10 -10,0 0,-10z M260,170l10,0 0,10 -10,0 0,-10z M270,170l10,0 0,10 -10,0 0,-10z M280,170l10,0 0,10 -10,0 0,-10z M300,170l10,0 0,10 -10,0 0,-10z M310,170l10,0 0,10 -10,0 0,-10z M330,170l10,0 0,10 -10,0 0,-10z M340,170l10,0 0,10 -10,0 0,-10z M350,170l10,0 0,10 -10,0 0,-10z M380,170l10,0 0,10 -10,0 0,-10z M390,170l10,0 0,10 -10,0 0,-10z M400,170l10,0 0,10 -10,0 0,-10z M450,170l10,0 0,10 -10,0 0,-10z M20,180l10,0 0,10 -10,0 0,-10z M30,180l10,0 0,10 -10,0 0,-10z M40,180l10,0 0,10 -10,0 0,-10z M60,180l10,0 0,10 -10,0 0,-10z M120,180l10,0 0,10 -10,0 0,-10z M150,180l10,0 0,10 -10,0 0,-10z M160,180l10,0 0,10 -10,0 0,-10z M170,180l10,0 0,10 -10,0 0,-10z M180,180l10,0 0,10 -10,0 0,-10z M190,180l10,0 0,10 -10,0 0,-10z M220,180l10,0 0,10 -10,0 0,-10z M230,180l10,0 0,10 -10,0 0,-10z M250,180l10,0 0,10 -10,0 0,-10z M270,180l10,0 0,10 -10,0 0,-10z M280,180l10,0 0,10 -10,0 0,-10z M300,180l10,0 0,10 -10,0 0,-10z M310,180l10,0 0,10 -10,0 0,-10z M330,180l10,0 0,10 -10,0 0,-10z M370,180l10,0 0,10 -10,0 0,-10z M380,180l10,0 0,10 -10,0 0,-10z M390,180l10,0 0,10 -10,0 0,-10z M410,180l10,0 0,10 -10,0 0,-10z M430,180l10,0 0,10 -10,0 0,-10z M440,180l10,0 0,10 -10,0 0,-10z M10,190l10,0 0,10 -10,0 0,-10z M30,190l10,0 0,10 -10,0 0,-10z M60,190l10,0 0,10 -10,0 0,-10z M70,190l10,0 0,10 -10,0 0,-10z M80,190l10,0 0,10 -10,0 0,-10z M130,190l10,0 0,10 -10,0 0,-10z M170,190l10,0 0,10 -10,0 0,-10z M240,190l10,0 0,10 -10,0 0,-10z M250,190l10,0 0,10 -10,0 0,-10z M270,190l10,0 0,10 -10,0 0,-10z M290,190l10,0 0,10 -10,0 0,-10z M310,190l10,0 0,10 -10,0 0,-10z M320,190l10,0 0,10 -10,0 0,-10z M340,190l10,0 0,10 -10,0 0,-10z M360,190l10,0 0,10 -10,0 0,-10z M370,190l10,0 0,10 -10,0 0,-10z M380,190l10,0 0,10 -10,0 0,-10z M390,190l10,0 0,10 -10,0 0,-10z M430,190l10,0 0,10 -10,0 0,-10z M440,190l10,0 0,10 -10,0 0,-10z M10,200l10,0 0,10 -10,0 0,-10z M40,200l10,0 0,10 -10,0 0,-10z M60,200l10,0 0,10 -10,0 0,-10z M100,200l10,0 0,10 -10,0 0,-10z M120,200l10,0 0,10 -10,0 0,-10z M150,200l10,0 0,10 -10,0 0,-10z M160,200l10,0 0,10 -10,0 0,-10z M170,200l10,0 0,10 -10,0 0,-10z M190,200l10,0 0,10 -10,0 0,-10z M200,200l10,0 0,10 -10,0 0,-10z M220,200l10,0 0,10 -10,0 0,-10z M230,200l10,0 0,10 -10,0 0,-10z M240,200l10,0 0,10 -10,0 0,-10z M260,200l10,0 0,10 -10,0 0,-10z M270,200l10,0 0,10 -10,0 0,-10z M280,200l10,0 0,10 -10,0 0,-10z M290,200l10,0 0,10 -10,0 0,-10z M310,200l10,0 0,10 -10,0 0,-10z M340,200l10,0 0,10 -10,0 0,-10z M350,200l10,0 0,10 -10,0 0,-10z M360,200l10,0 0,10 -10,0 0,-10z M370,200l10,0 0,10 -10,0 0,-10z M400,200l10,0 0,10 -10,0 0,-10z M410,200l10,0 0,10 -10,0 0,-10z M440,200l10,0 0,10 -10,0 0,-10z M450,200l10,0 0,10 -10,0 0,-10z M10,210l10,0 0,10 -10,0 0,-10z M40,210l10,0 0,10 -10,0 0,-10z M50,210l10,0 0,10 -10,0 0,-10z M60,210l10,0 0,10 -10,0 0,-10z M70,210l10,0 0,10 -10,0 0,-10z M80,210l10,0 0,10 -10,0 0,-10z M90,210l10,0 0,10 -10,0 0,-10z M100,210l10,0 0,10 -10,0 0,-10z M120,210l10,0 0,10 -10,0 0,-10z M130,210l10,0 0,10 -10,0 0,-10z M180,210l10,0 0,10 -10,0 0,-10z M190,210l10,0 0,10 -10,0 0,-10z M210,210l10,0 0,10 -10,0 0,-10z M220,210l10,0 0,10 -10,0 0,-10z M230,210l10,0 0,10 -10,0 0,-10z M240,210l10,0 0,10 -10,0 0,-10z M250,210l10,0 0,10 -10,0 0,-10z M260,210l10,0 0,10 -10,0 0,-10z M280,210l10,0 0,10 -10,0 0,-10z M290,210l10,0 0,10 -10,0 0,-10z M330,210l10,0 0,10 -10,0 0,-10z M360,210l10,0 0,10 -10,0 0,-10z M370,210l10,0 0,10 -10,0 0,-10z M380,210l10,0 0,10 -10,0 0,-10z M390,210l10,0 0,10 -10,0 0,-10z M400,210l10,0 0,10 -10,0 0,-10z M410,210l10,0 0,10 -10,0 0,-10z M10,220l10,0 0,10 -10,0 0,-10z M50,220l10,0 0,10 -10,0 0,-10z M90,220l10,0 0,10 -10,0 0,-10z M100,220l10,0 0,10 -10,0 0,-10z M120,220l10,0 0,10 -10,0 0,-10z M130,220l10,0 0,10 -10,0 0,-10z M140,220l10,0 0,10 -10,0 0,-10z M160,220l10,0 0,10 -10,0 0,-10z M190,220l10,0 0,10 -10,0 0,-10z M210,220l10,0 0,10 -10,0 0,-10z M250,220l10,0 0,10 -10,0 0,-10z M290,220l10,0 0,10 -10,0 0,-10z M300,220l10,0 0,10 -10,0 0,-10z M330,220l10,0 0,10 -10,0 0,-10z M360,220l10,0 0,10 -10,0 0,-10z M370,220l10,0 0,10 -10,0 0,-10z M410,220l10,0 0,10 -10,0 0,-10z M420,220l10,0 0,10 -10,0 0,-10z M430,220l10,0 0,10 -10,0 0,-10z M10,230l10,0 0,10 -10,0 0,-10z M30,230l10,0 0,10 -10,0 0,-10z M50,230l10,0 0,10 -10,0 0,-10z M70,230l10,0 0,10 -10,0 0,-10z M90,230l10,0 0,10 -10,0 0,-10z M100,230l10,0 0,10 -10,0 0,-10z M110,230l10,0 0,10 -10,0 0,-10z M130,230l10,0 0,10 -10,0 0,-10z M150,230l10,0 0,10 -10,0 0,-10z M170,230l10,0 0,10 -10,0 0,-10z M190,230l10,0 0,10 -10,0 0,-10z M210,230l10,0 0,10 -10,0 0,-10z M230,230l10,0 0,10 -10,0 0,-10z M250,230l10,0 0,10 -10,0 0,-10z M300,230l10,0 0,10 -10,0 0,-10z M340,230l10,0 0,10 -10,0 0,-10z M370,230l10,0 0,10 -10,0 0,-10z M390,230l10,0 0,10 -10,0 0,-10z M410,230l10,0 0,10 -10,0 0,-10z M420,230l10,0 0,10 -10,0 0,-10z M430,230l10,0 0,10 -10,0 0,-10z M440,230l10,0 0,10 -10,0 0,-10z M30,240l10,0 0,10 -10,0 0,-10z M40,240l10,0 0,10 -10,0 0,-10z M50,240l10,0 0,10 -10,0 0,-10z M90,240l10,0 0,10 -10,0 0,-10z M100,240l10,0 0,10 -10,0 0,-10z M120,240l10,0 0,10 -10,0 0,-10z M140,240l10,0 0,10 -10,0 0,-10z M160,240l10,0 0,10 -10,0 0,-10z M180,240l10,0 0,10 -10,0 0,-10z M190,240l10,0 0,10 -10,0 0,-10z M210,240l10,0 0,10 -10,0 0,-10z M250,240l10,0 0,10 -10,0 0,-10z M270,240l10,0 0,10 -10,0 0,-10z M280,240l10,0 0,10 -10,0 0,-10z M300,240l10,0 0,10 -10,0 0,-10z M310,240l10,0 0,10 -10,0 0,-10z M340,240l10,0 0,10 -10,0 0,-10z M350,240l10,0 0,10 -10,0 0,-10z M360,240l10,0 0,10 -10,0 0,-10z M370,240l10,0 0,10 -10,0 0,-10z M410,240l10,0 0,10 -10,0 0,-10z M440,240l10,0 0,10 -10,0 0,-10z M40,250l10,0 0,10 -10,0 0,-10z M50,250l10,0 0,10 -10,0 0,-10z M60,250l10,0 0,10 -10,0 0,-10z M70,250l10,0 0,10 -10,0 0,-10z M80,250l10,0 0,10 -10,0 0,-10z M90,250l10,0 0,10 -10,0 0,-10z M150,250l10,0 0,10 -10,0 0,-10z M200,250l10,0 0,10 -10,0 0,-10z M210,250l10,0 0,10 -10,0 0,-10z M220,250l10,0 0,10 -10,0 0,-10z M230,250l10,0 0,10 -10,0 0,-10z M240,250l10,0 0,10 -10,0 0,-10z M250,250l10,0 0,10 -10,0 0,-10z M260,250l10,0 0,10 -10,0 0,-10z M270,250l10,0 0,10 -10,0 0,-10z M330,250l10,0 0,10 -10,0 0,-10z M340,250l10,0 0,10 -10,0 0,-10z M360,250l10,0 0,10 -10,0 0,-10z M370,250l10,0 0,10 -10,0 0,-10z M380,250l10,0 0,10 -10,0 0,-10z M390,250l10,0 0,10 -10,0 0,-10z M400,250l10,0 0,10 -10,0 0,-10z M410,250l10,0 0,10 -10,0 0,-10z M440,250l10,0 0,10 -10,0 0,-10z M450,250l10,0 0,10 -10,0 0,-10z M10,260l10,0 0,10 -10,0 0,-10z M50,260l10,0 0,10 -10,0 0,-10z M90,260l10,0 0,10 -10,0 0,-10z M100,260l10,0 0,10 -10,0 0,-10z M110,260l10,0 0,10 -10,0 0,-10z M140,260l10,0 0,10 -10,0 0,-10z M180,260l10,0 0,10 -10,0 0,-10z M190,260l10,0 0,10 -10,0 0,-10z M230,260l10,0 0,10 -10,0 0,-10z M250,260l10,0 0,10 -10,0 0,-10z M270,260l10,0 0,10 -10,0 0,-10z M310,260l10,0 0,10 -10,0 0,-10z M370,260l10,0 0,10 -10,0 0,-10z M390,260l10,0 0,10 -10,0 0,-10z M400,260l10,0 0,10 -10,0 0,-10z M430,260l10,0 0,10 -10,0 0,-10z M10,270l10,0 0,10 -10,0 0,-10z M30,270l10,0 0,10 -10,0 0,-10z M40,270l10,0 0,10 -10,0 0,-10z M70,270l10,0 0,10 -10,0 0,-10z M80,270l10,0 0,10 -10,0 0,-10z M140,270l10,0 0,10 -10,0 0,-10z M150,270l10,0 0,10 -10,0 0,-10z M180,270l10,0 0,10 -10,0 0,-10z M210,270l10,0 0,10 -10,0 0,-10z M220,270l10,0 0,10 -10,0 0,-10z M270,270l10,0 0,10 -10,0 0,-10z M280,270l10,0 0,10 -10,0 0,-10z M300,270l10,0 0,10 -10,0 0,-10z M310,270l10,0 0,10 -10,0 0,-10z M320,270l10,0 0,10 -10,0 0,-10z M330,270l10,0 0,10 -10,0 0,-10z M360,270l10,0 0,10 -10,0 0,-10z M380,270l10,0 0,10 -10,0 0,-10z M410,270l10,0 0,10 -10,0 0,-10z M420,270l10,0 0,10 -10,0 0,-10z M430,270l10,0 0,10 -10,0 0,-10z M440,270l10,0 0,10 -10,0 0,-10z M10,280l10,0 0,10 -10,0 0,-10z M20,280l10,0 0,10 -10,0 0,-10z M30,280l10,0 0,10 -10,0 0,-10z M90,280l10,0 0,10 -10,0 0,-10z M100,280l10,0 0,10 -10,0 0,-10z M140,280l10,0 0,10 -10,0 0,-10z M150,280l10,0 0,10 -10,0 0,-10z M160,280l10,0 0,10 -10,0 0,-10z M190,280l10,0 0,10 -10,0 0,-10z M220,280l10,0 0,10 -10,0 0,-10z M230,280l10,0 0,10 -10,0 0,-10z M240,280l10,0 0,10 -10,0 0,-10z M260,280l10,0 0,10 -10,0 0,-10z M350,280l10,0 0,10 -10,0 0,-10z M370,280l10,0 0,10 -10,0 0,-10z M410,280l10,0 0,10 -10,0 0,-10z M450,280l10,0 0,10 -10,0 0,-10z M30,290l10,0 0,10 -10,0 0,-10z M40,290l10,0 0,10 -10,0 0,-10z M50,290l10,0 0,10 -10,0 0,-10z M60,290l10,0 0,10 -10,0 0,-10z M70,290l10,0 0,10 -10,0 0,-10z M100,290l10,0 0,10 -10,0 0,-10z M120,290l10,0 0,10 -10,0 0,-10z M130,290l10,0 0,10 -10,0 0,-10z M140,290l10,0 0,10 -10,0 0,-10z M150,290l10,0 0,10 -10,0 0,-10z M180,290l10,0 0,10 -10,0 0,-10z M190,290l10,0 0,10 -10,0 0,-10z M200,290l10,0 0,10 -10,0 0,-10z M230,290l10,0 0,10 -10,0 0,-10z M240,290l10,0 0,10 -10,0 0,-10z M250,290l10,0 0,10 -10,0 0,-10z M260,290l10,0 0,10 -10,0 0,-10z M270,290l10,0 0,10 -10,0 0,-10z M280,290l10,0 0,10 -10,0 0,-10z M300,290l10,0 0,10 -10,0 0,-10z M310,290l10,0 0,10 -10,0 0,-10z M390,290l10,0 0,10 -10,0 0,-10z M420,290l10,0 0,10 -10,0 0,-10z M450,290l10,0 0,10 -10,0 0,-10z M10,300l10,0 0,10 -10,0 0,-10z M30,300l10,0 0,10 -10,0 0,-10z M40,300l10,0 0,10 -10,0 0,-10z M50,300l10,0 0,10 -10,0 0,-10z M90,300l10,0 0,10 -10,0 0,-10z M110,300l10,0 0,10 -10,0 0,-10z M120,300l10,0 0,10 -10,0 0,-10z M160,300l10,0 0,10 -10,0 0,-10z M170,300l10,0 0,10 -10,0 0,-10z M190,300l10,0 0,10 -10,0 0,-10z M210,300l10,0 0,10 -10,0 0,-10z M230,300l10,0 0,10 -10,0 0,-10z M250,300l10,0 0,10 -10,0 0,-10z M260,300l10,0 0,10 -10,0 0,-10z M280,300l10,0 0,10 -10,0 0,-10z M290,300l10,0 0,10 -10,0 0,-10z M300,300l10,0 0,10 -10,0 0,-10z M310,300l10,0 0,10 -10,0 0,-10z M320,300l10,0 0,10 -10,0 0,-10z M340,300l10,0 0,10 -10,0 0,-10z M380,300l10,0 0,10 -10,0 0,-10z M390,300l10,0 0,10 -10,0 0,-10z M400,300l10,0 0,10 -10,0 0,-10z M430,300l10,0 0,10 -10,0 0,-10z M440,300l10,0 0,10 -10,0 0,-10z M450,300l10,0 0,10 -10,0 0,-10z M20,310l10,0 0,10 -10,0 0,-10z M30,310l10,0 0,10 -10,0 0,-10z M50,310l10,0 0,10 -10,0 0,-10z M70,310l10,0 0,10 -10,0 0,-10z M80,310l10,0 0,10 -10,0 0,-10z M90,310l10,0 0,10 -10,0 0,-10z M110,310l10,0 0,10 -10,0 0,-10z M150,310l10,0 0,10 -10,0 0,-10z M160,310l10,0 0,10 -10,0 0,-10z M170,310l10,0 0,10 -10,0 0,-10z M180,310l10,0 0,10 -10,0 0,-10z M190,310l10,0 0,10 -10,0 0,-10z M200,310l10,0 0,10 -10,0 0,-10z M220,310l10,0 0,10 -10,0 0,-10z M230,310l10,0 0,10 -10,0 0,-10z M240,310l10,0 0,10 -10,0 0,-10z M250,310l10,0 0,10 -10,0 0,-10z M260,310l10,0 0,10 -10,0 0,-10z M300,310l10,0 0,10 -10,0 0,-10z M320,310l10,0 0,10 -10,0 0,-10z M330,310l10,0 0,10 -10,0 0,-10z M340,310l10,0 0,10 -10,0 0,-10z M360,310l10,0 0,10 -10,0 0,-10z M380,310l10,0 0,10 -10,0 0,-10z M410,310l10,0 0,10 -10,0 0,-10z M420,310l10,0 0,10 -10,0 0,-10z M440,310l10,0 0,10 -10,0 0,-10z M20,320l10,0 0,10 -10,0 0,-10z M30,320l10,0 0,10 -10,0 0,-10z M90,320l10,0 0,10 -10,0 0,-10z M100,320l10,0 0,10 -10,0 0,-10z M110,320l10,0 0,10 -10,0 0,-10z M130,320l10,0 0,10 -10,0 0,-10z M140,320l10,0 0,10 -10,0 0,-10z M150,320l10,0 0,10 -10,0 0,-10z M160,320l10,0 0,10 -10,0 0,-10z M170,320l10,0 0,10 -10,0 0,-10z M200,320l10,0 0,10 -10,0 0,-10z M240,320l10,0 0,10 -10,0 0,-10z M280,320l10,0 0,10 -10,0 0,-10z M290,320l10,0 0,10 -10,0 0,-10z M300,320l10,0 0,10 -10,0 0,-10z M320,320l10,0 0,10 -10,0 0,-10z M330,320l10,0 0,10 -10,0 0,-10z M350,320l10,0 0,10 -10,0 0,-10z M410,320l10,0 0,10 -10,0 0,-10z M420,320l10,0 0,10 -10,0 0,-10z M440,320l10,0 0,10 -10,0 0,-10z M30,330l10,0 0,10 -10,0 0,-10z M50,330l10,0 0,10 -10,0 0,-10z M60,330l10,0 0,10 -10,0 0,-10z M70,330l10,0 0,10 -10,0 0,-10z M100,330l10,0 0,10 -10,0 0,-10z M130,330l10,0 0,10 -10,0 0,-10z M140,330l10,0 0,10 -10,0 0,-10z M150,330l10,0 0,10 -10,0 0,-10z M170,330l10,0 0,10 -10,0 0,-10z M180,330l10,0 0,10 -10,0 0,-10z M200,330l10,0 0,10 -10,0 0,-10z M220,330l10,0 0,10 -10,0 0,-10z M250,330l10,0 0,10 -10,0 0,-10z M270,330l10,0 0,10 -10,0 0,-10z M280,330l10,0 0,10 -10,0 0,-10z M310,330l10,0 0,10 -10,0 0,-10z M330,330l10,0 0,10 -10,0 0,-10z M410,330l10,0 0,10 -10,0 0,-10z M450,330l10,0 0,10 -10,0 0,-10z M60,340l10,0 0,10 -10,0 0,-10z M90,340l10,0 0,10 -10,0 0,-10z M100,340l10,0 0,10 -10,0 0,-10z M110,340l10,0 0,10 -10,0 0,-10z M160,340l10,0 0,10 -10,0 0,-10z M190,340l10,0 0,10 -10,0 0,-10z M210,340l10,0 0,10 -10,0 0,-10z M230,340l10,0 0,10 -10,0 0,-10z M240,340l10,0 0,10 -10,0 0,-10z M260,340l10,0 0,10 -10,0 0,-10z M280,340l10,0 0,10 -10,0 0,-10z M310,340l10,0 0,10 -10,0 0,-10z M360,340l10,0 0,10 -10,0 0,-10z M370,340l10,0 0,10 -10,0 0,-10z M430,340l10,0 0,10 -10,0 0,-10z M440,340l10,0 0,10 -10,0 0,-10z M450,340l10,0 0,10 -10,0 0,-10z M50,350l10,0 0,10 -10,0 0,-10z M70,350l10,0 0,10 -10,0 0,-10z M80,350l10,0 0,10 -10,0 0,-10z M90,350l10,0 0,10 -10,0 0,-10z M100,350l10,0 0,10 -10,0 0,-10z M110,350l10,0 0,10 -10,0 0,-10z M140,350l10,0 0,10 -10,0 0,-10z M150,350l10,0 0,10 -10,0 0,-10z M160,350l10,0 0,10 -10,0 0,-10z M170,350l10,0 0,10 -10,0 0,-10z M180,350l10,0 0,10 -10,0 0,-10z M210,350l10,0 0,10 -10,0 0,-10z M240,350l10,0 0,10 -10,0 0,-10z M290,350l10,0 0,10 -10,0 0,-10z M300,350l10,0 0,10 -10,0 0,-10z M310,350l10,0 0,10 -10,0 0,-10z M320,350l10,0 0,10 -10,0 0,-10z M330,350l10,0 0,10 -10,0 0,-10z M340,350l10,0 0,10 -10,0 0,-10z M360,350l10,0 0,10 -10,0 0,-10z M380,350l10,0 0,10 -10,0 0,-10z M420,350l10,0 0,10 -10,0 0,-10z M440,350l10,0 0,10 -10,0 0,-10z M20,360l10,0 0,10 -10,0 0,-10z M30,360l10,0 0,10 -10,0 0,-10z M40,360l10,0 0,10 -10,0 0,-10z M50,360l10,0 0,10 -10,0 0,-10z M80,360l10,0 0,10 -10,0 0,-10z M90,360l10,0 0,10 -10,0 0,-10z M110,360l10,0 0,10 -10,0 0,-10z M120,360l10,0 0,10 -10,0 0,-10z M130,360l10,0 0,10 -10,0 0,-10z M150,360l10,0 0,10 -10,0 0,-10z M160,360l10,0 0,10 -10,0 0,-10z M180,360l10,0 0,10 -10,0 0,-10z M210,360l10,0 0,10 -10,0 0,-10z M230,360l10,0 0,10 -10,0 0,-10z M240,360l10,0 0,10 -10,0 0,-10z M250,360l10,0 0,10 -10,0 0,-10z M270,360l10,0 0,10 -10,0 0,-10z M320,360l10,0 0,10 -10,0 0,-10z M330,360l10,0 0,10 -10,0 0,-10z M350,360l10,0 0,10 -10,0 0,-10z M390,360l10,0 0,10 -10,0 0,-10z M400,360l10,0 0,10 -10,0 0,-10z M410,360l10,0 0,10 -10,0 0,-10z M420,360l10,0 0,10 -10,0 0,-10z M440,360l10,0 0,10 -10,0 0,-10z M10,370l10,0 0,10 -10,0 0,-10z M40,370l10,0 0,10 -10,0 0,-10z M50,370l10,0 0,10 -10,0 0,-10z M70,370l10,0 0,10 -10,0 0,-10z M90,370l10,0 0,10 -10,0 0,-10z M150,370l10,0 0,10 -10,0 0,-10z M180,370l10,0 0,10 -10,0 0,-10z M190,370l10,0 0,10 -10,0 0,-10z M200,370l10,0 0,10 -10,0 0,-10z M210,370l10,0 0,10 -10,0 0,-10z M220,370l10,0 0,10 -10,0 0,-10z M230,370l10,0 0,10 -10,0 0,-10z M240,370l10,0 0,10 -10,0 0,-10z M250,370l10,0 0,10 -10,0 0,-10z M270,370l10,0 0,10 -10,0 0,-10z M310,370l10,0 0,10 -10,0 0,-10z M330,370l10,0 0,10 -10,0 0,-10z M370,370l10,0 0,10 -10,0 0,-10z M380,370l10,0 0,10 -10,0 0,-10z M390,370l10,0 0,10 -10,0 0,-10z M400,370l10,0 0,10 -10,0 0,-10z M410,370l10,0 0,10 -10,0 0,-10z M450,370l10,0 0,10 -10,0 0,-10z M90,380l10,0 0,10 -10,0 0,-10z M100,380l10,0 0,10 -10,0 0,-10z M110,380l10,0 0,10 -10,0 0,-10z M130,380l10,0 0,10 -10,0 0,-10z M160,380l10,0 0,10 -10,0 0,-10z M170,380l10,0 0,10 -10,0 0,-10z M210,380l10,0 0,10 -10,0 0,-10z M250,380l10,0 0,10 -10,0 0,-10z M270,380l10,0 0,10 -10,0 0,-10z M300,380l10,0 0,10 -10,0 0,-10z M310,380l10,0 0,10 -10,0 0,-10z M330,380l10,0 0,10 -10,0 0,-10z M370,380l10,0 0,10 -10,0 0,-10z M410,380l10,0 0,10 -10,0 0,-10z M420,380l10,0 0,10 -10,0 0,-10z M440,380l10,0 0,10 -10,0 0,-10z M10,390l10,0 0,10 -10,0 0,-10z M20,390l10,0 0,10 -10,0 0,-10z M30,390l10,0 0,10 -10,0 0,-10z M40,390l10,0 0,10 -10,0 0,-10z M50,390l10,0 0,10 -10,0 0,-10z M60,390l10,0 0,10 -10,0 0,-10z M70,390l10,0 0,10 -10,0 0,-10z M120,390l10,0 0,10 -10,0 0,-10z M140,390l10,0 0,10 -10,0 0,-10z M160,390l10,0 0,10 -10,0 0,-10z M170,390l10,0 0,10 -10,0 0,-10z M210,390l10,0 0,10 -10,0 0,-10z M230,390l10,0 0,10 -10,0 0,-10z M250,390l10,0 0,10 -10,0 0,-10z M260,390l10,0 0,10 -10,0 0,-10z M290,390l10,0 0,10 -10,0 0,-10z M300,390l10,0 0,10 -10,0 0,-10z M310,390l10,0 0,10 -10,0 0,-10z M320,390l10,0 0,10 -10,0 0,-10z M340,390l10,0 0,10 -10,0 0,-10z M350,390l10,0 0,10 -10,0 0,-10z M360,390l10,0 0,10 -10,0 0,-10z M370,390l10,0 0,10 -10,0 0,-10z M390,390l10,0 0,10 -10,0 0,-10z M410,390l10,0 0,10 -10,0 0,-10z M430,390l10,0 0,10 -10,0 0,-10z M440,390l10,0 0,10 -10,0 0,-10z M10,400l10,0 0,10 -10,0 0,-10z M70,400l10,0 0,10 -10,0 0,-10z M100,400l10,0 0,10 -10,0 0,-10z M110,400l10,0 0,10 -10,0 0,-10z M130,400l10,0 0,10 -10,0 0,-10z M160,400l10,0 0,10 -10,0 0,-10z M170,400l10,0 0,10 -10,0 0,-10z M200,400l10,0 0,10 -10,0 0,-10z M210,400l10,0 0,10 -10,0 0,-10z M250,400l10,0 0,10 -10,0 0,-10z M270,400l10,0 0,10 -10,0 0,-10z M290,400l10,0 0,10 -10,0 0,-10z M300,400l10,0 0,10 -10,0 0,-10z M330,400l10,0 0,10 -10,0 0,-10z M360,400l10,0 0,10 -10,0 0,-10z M370,400l10,0 0,10 -10,0 0,-10z M410,400l10,0 0,10 -10,0 0,-10z M440,400l10,0 0,10 -10,0 0,-10z M450,400l10,0 0,10 -10,0 0,-10z M10,410l10,0 0,10 -10,0 0,-10z M30,410l10,0 0,10 -10,0 0,-10z M40,410l10,0 0,10 -10,0 0,-10z M50,410l10,0 0,10 -10,0 0,-10z M70,410l10,0 0,10 -10,0 0,-10z M90,410l10,0 0,10 -10,0 0,-10z M120,410l10,0 0,10 -10,0 0,-10z M130,410l10,0 0,10 -10,0 0,-10z M190,410l10,0 0,10 -10,0 0,-10z M200,410l10,0 0,10 -10,0 0,-10z M210,410l10,0 0,10 -10,0 0,-10z M220,410l10,0 0,10 -10,0 0,-10z M230,410l10,0 0,10 -10,0 0,-10z M240,410l10,0 0,10 -10,0 0,-10z M250,410l10,0 0,10 -10,0 0,-10z M260,410l10,0 0,10 -10,0 0,-10z M280,410l10,0 0,10 -10,0 0,-10z M300,410l10,0 0,10 -10,0 0,-10z M320,410l10,0 0,10 -10,0 0,-10z M330,410l10,0 0,10 -10,0 0,-10z M340,410l10,0 0,10 -10,0 0,-10z M350,410l10,0 0,10 -10,0 0,-10z M370,410l10,0 0,10 -10,0 0,-10z M380,410l10,0 0,10 -10,0 0,-10z M390,410l10,0 0,10 -10,0 0,-10z M400,410l10,0 0,10 -10,0 0,-10z M410,410l10,0 0,10 -10,0 0,-10z M440,410l10,0 0,10 -10,0 0,-10z M450,410l10,0 0,10 -10,0 0,-10z M10,420l10,0 0,10 -10,0 0,-10z M30,420l10,0 0,10 -10,0 0,-10z M40,420l10,0 0,10 -10,0 0,-10z M50,420l10,0 0,10 -10,0 0,-10z M70,420l10,0 0,10 -10,0 0,-10z M110,420l10,0 0,10 -10,0 0,-10z M140,420l10,0 0,10 -10,0 0,-10z M210,420l10,0 0,10 -10,0 0,-10z M220,420l10,0 0,10 -10,0 0,-10z M230,420l10,0 0,10 -10,0 0,-10z M240,420l10,0 0,10 -10,0 0,-10z M270,420l10,0 0,10 -10,0 0,-10z M280,420l10,0 0,10 -10,0 0,-10z M290,420l10,0 0,10 -10,0 0,-10z M300,420l10,0 0,10 -10,0 0,-10z M310,420l10,0 0,10 -10,0 0,-10z M370,420l10,0 0,10 -10,0 0,-10z M390,420l10,0 0,10 -10,0 0,-10z M410,420l10,0 0,10 -10,0 0,-10z M440,420l10,0 0,10 -10,0 0,-10z M450,420l10,0 0,10 -10,0 0,-10z M10,430l10,0 0,10 -10,0 0,-10z M30,430l10,0 0,10 -10,0 0,-10z M40,430l10,0 0,10 -10,0 0,-10z M50,430l10,0 0,10 -10,0 0,-10z M70,430l10,0 0,10 -10,0 0,-10z M100,430l10,0 0,10 -10,0 0,-10z M110,430l10,0 0,10 -10,0 0,-10z M140,430l10,0 0,10 -10,0 0,-10z M160,430l10,0 0,10 -10,0 0,-10z M180,430l10,0 0,10 -10,0 0,-10z M190,430l10,0 0,10 -10,0 0,-10z M200,430l10,0 0,10 -10,0 0,-10z M230,430l10,0 0,10 -10,0 0,-10z M250,430l10,0 0,10 -10,0 0,-10z M300,430l10,0 0,10 -10,0 0,-10z M310,430l10,0 0,10 -10,0 0,-10z M340,430l10,0 0,10 -10,0 0,-10z M380,430l10,0 0,10 -10,0 0,-10z M410,430l10,0 0,10 -10,0 0,-10z M420,430l10,0 0,10 -10,0 0,-10z M440,430l10,0 0,10 -10,0 0,-10z M10,440l10,0 0,10 -10,0 0,-10z M70,440l10,0 0,10 -10,0 0,-10z M90,440l10,0 0,10 -10,0 0,-10z M110,440l10,0 0,10 -10,0 0,-10z M130,440l10,0 0,10 -10,0 0,-10z M140,440l10,0 0,10 -10,0 0,-10z M150,440l10,0 0,10 -10,0 0,-10z M210,440l10,0 0,10 -10,0 0,-10z M220,440l10,0 0,10 -10,0 0,-10z M230,440l10,0 0,10 -10,0 0,-10z M290,440l10,0 0,10 -10,0 0,-10z M300,440l10,0 0,10 -10,0 0,-10z M350,440l10,0 0,10 -10,0 0,-10z M410,440l10,0 0,10 -10,0 0,-10z M10,450l10,0 0,10 -10,0 0,-10z M20,450l10,0 0,10 -10,0 0,-10z M30,450l10,0 0,10 -10,0 0,-10z M40,450l10,0 0,10 -10,0 0,-10z M50,450l10,0 0,10 -10,0 0,-10z M60,450l10,0 0,10 -10,0 0,-10z M70,450l10,0 0,10 -10,0 0,-10z M100,450l10,0 0,10 -10,0 0,-10z M110,450l10,0 0,10 -10,0 0,-10z M120,450l10,0 0,10 -10,0 0,-10z M140,450l10,0 0,10 -10,0 0,-10z M150,450l10,0 0,10 -10,0 0,-10z M160,450l10,0 0,10 -10,0 0,-10z M170,450l10,0 0,10 -10,0 0,-10z M220,450l10,0 0,10 -10,0 0,-10z M250,450l10,0 0,10 -10,0 0,-10z M300,450l10,0 0,10 -10,0 0,-10z M310,450l10,0 0,10 -10,0 0,-10z M330,450l10,0 0,10 -10,0 0,-10z M340,450l10,0 0,10 -10,0 0,-10z M360,450l10,0 0,10 -10,0 0,-10z M370,450l10,0 0,10 -10,0 0,-10z M410,450l10,0 0,10 -10,0 0,-10z M450,450l10,0 0,10 -10,0 0,-10z " stroke="transparent" fill="rgb(255, 5, 5)"/></svg>